<svg xmlns="http://www.w3.org/2000/svg" viewBox="0 0 672.61 312.33"><defs><style>.cls-1{fill:#4c9249;}</style></defs><title>Logo</title><g id="Calque_1" data-name="Calque 1"><path class="cls-1" d="M811.06,448H811l1,.92c.24-3,9.66,3.94,10.41,4.71,1.92,2,3.39,4.76,5.63,6.39,2.95,2.16,6.57,1.26,9.36-.65,2.51-1.72-3.28-1.39-4.53-.53,1.42-1-1.35-3-2-3.88a46.85,46.85,0,0,0-4.06-4.5,16.23,16.23,0,0,0-8-4.35c-2.46-.46-12.18-.16-12.49,3.69,0,.65.44.87,1.05.93h.07c1.51.15,6.71-2.44,3.66-2.73Z" transform="translate(-303.93 -353.18)"/><path class="cls-1" d="M812.68,438.43c.71.42,3.25-.8,3.9-.91a5.77,5.77,0,0,1,4.65.75c2.26,1.21,4,3.2,6.13,4.63s3.56,1.88,5.91,1.06c1.9-.66.18-1.71-1.16-1.24-1.8.62-6.2-4.44-8-5.57a11.1,11.1,0,0,0-5.79-1.83c-2.48,0-7.42,1.37-8.3,3.94-.08.24.13.44.3.54l.1.06c.85.5,3.51-.71,2.3-1.43Z" transform="translate(-303.93 -353.18)"/><path class="cls-1" d="M826.09,392.55c12.09,1.83,24.78,1.12,35.78-4.67A34.92,34.92,0,0,0,874,377.66c5.37-7.4,8.3-16.37,19.22-16.66,1.16,0,6.5-2.31,3.79-2.24-9.69.26-19.1,4.36-24.4,12.75-4,6.28-7.12,11.8-13.83,15.6-8.52,4.82-18.53,4.71-27.93,3.29-1.32-.2-6.2,1.94-4.79,2.15Z" transform="translate(-303.93 -353.18)"/><path class="cls-1" d="M846,355.56c7-.13,20.58-2.76,24.57,4.68,2.77,5.15-.85,10.48-5.2,13.27-3.22,2.06-8.49,3.46-10.56-.92-1.44-3,2.23-6.11,4.15-7.72,1.31-1.1-1.55-1.31-2.37-.63-3.78,3.18-7.82,9.42-1.52,12.51,5.35,2.63,12.44-1.45,16-5.38,4.15-4.54,4.88-11.71-.67-15.45-6.33-4.26-16.22-2.32-23.34-2.19-1.2,0-3,1.86-1.08,1.83Z" transform="translate(-303.93 -353.18)"/><path class="cls-1" d="M843.79,402.8c12.19-3.28,21.54-11.54,32.72-16.91,6.59-3.17,13.82-4.75,20.74-1.66a17.63,17.63,0,0,1,6.56,4.83c.33.4,4.46,7.71,3.21,8l2.66-.06-1-.43c-1.52-.65-6.82,1.67-4.67,2.58,5.78,2.44,10-2.7,7.78-8.08-2.74-6.73-10-10.55-16.92-11.35-20.11-2.34-33.71,15.76-51.72,20.6-3.42.92-2.8,3.39.66,2.46Z" transform="translate(-303.93 -353.18)"/><path class="cls-1" d="M889.57,615.81c16.8,19.73,51,34.29,75.19,18.85,10.69-6.83,16.63-21,6.74-31.19-7.37-7.63-22.23-10.16-30.15-1.81-3.77,4-4.24,10.91,1.26,13.59,6,2.89,12-1.54,16.26-5.33,1.46-1.31-.82-2.41-2-1.41-3.24,2.9-6.68,6.06-11.33,4.83-5.86-1.56-4.9-8.31-1-11.5,5.78-4.67,14.64-3.65,20.58,0,13.88,8.66,8.59,25.59-4,32.28-23.07,12.26-53.48-1.44-69-19.66-.89-1-3.64.14-2.65,1.3Z" transform="translate(-303.93 -353.18)"/><path class="cls-1" d="M884.52,610.32c7.74,3.5,15.55,6.87,23.37,10.18,6.93,2.92,14,6.52,21.37,8.06,9.06,1.88,21.64,1,27.52-7.15.17-.24-2.35-.18-2.85.52-8.54,11.88-26.38,4.71-37,.25-9.94-4.18-19.87-8.39-29.7-12.84-.76-.35-3,.85-2.73,1Z" transform="translate(-303.93 -353.18)"/><path class="cls-1" d="M873.24,572.11c3.29,12.71,9,26.07,21.44,32.23,10.9,5.41,24.15,2.72,34-3.67,4.29-2.78,8.88-6.63,9.87-11.92s-2-10.55-6.23-13.62c-8.14-5.91-20.59-3.89-27.65,2.85-4,3.85-5.61,10,.83,12.2,5.54,1.86,10.9-1.64,15.07-4.92,2.59-2-3.17-2.15-4.66-1-2.25,1.77-7.31,4.83-9,.61-1.33-3.33,2.95-6.74,5.41-8.14a14,14,0,0,1,15.18,1.06c3.51,2.68,6.06,7.16,5.24,11.65-1,5.45-6.56,9.2-11.18,11.47-9.89,4.86-20.79,3.46-28.92-4-7.53-6.94-11.13-16.66-13.64-26.34-.52-2-6.33-.51-5.79,1.55Z" transform="translate(-303.93 -353.18)"/><path class="cls-1" d="M791.81,536.32c4.12-4.59,8.77-5.12,14.61-5.33a13.5,13.5,0,0,0,8.79-3c2.57-2.17-3.15-2.4-4.69-1.11s-5.47.62-7.41.78a26.77,26.77,0,0,0-6.2,1.26,22.35,22.35,0,0,0-9.79,6.35c-2.3,2.57,3.31,2.64,4.69,1.1Z" transform="translate(-303.93 -353.18)"/><path class="cls-1" d="M833.77,497.63c14.67-7.62,30.9-5.28,44.57,3.19,11.37,7.05,21.74,13.12,35.62,12.3,10.67-.64,22-4.82,29.17-13,6.38-7.29,10.37-24.66-2.32-28-1.61-.43-6.8,2.05-4.67,2.62,6.84,1.81,8.07,9.83,6.71,15.79-1.47,6.48-6.1,11.75-11.71,15.08-13,7.75-28.39,4.91-40.7-2.66-9.63-5.93-18.45-11.66-30-12.76a54.17,54.17,0,0,0-30.16,6.06c-3.44,1.78,1.78,2.31,3.51,1.41Z" transform="translate(-303.93 -353.18)"/><path class="cls-1" d="M896.7,490.7a24.68,24.68,0,0,0,23.17,6.7c7.27-1.6,17.6-8.25,13.81-17.1-2.79-6.49-11.57-5.83-16.26-2-2,1.67-6,6.38-1.75,7.95,2.35.88,5.14-.75,7-2,1.19-.8-1.69-.47-2.22-.1-3.59.87-4.67,0-3.25-2.7a11.16,11.16,0,0,1,2.34-2.94c3.85-3,8.78-2.06,11,1.91s.39,8.93-2.75,11.91c-8.16,7.76-21.18,4.71-28.33-2.63-.52-.54-3.19.52-2.73,1Z" transform="translate(-303.93 -353.18)"/><path class="cls-1" d="M916.32,468.63c3.08-2.1,6.2-4,9.91-4.6s6.86.41,10.31,1.17c3.79.84,7.46,1.39,11.26.37a17.13,17.13,0,0,0,12.75-16.37c.05-1.52-2.89-1.1-2.93.21-.18,5.81-3,11.23-8.56,13.57-5.15,2.17-10,.29-15.14-.74-7.45-1.5-13.39.89-19.52,5.05-1.62,1.11.74,2.14,1.92,1.34Z" transform="translate(-303.93 -353.18)"/><path class="cls-1" d="M906.45,414.73c9.75-2.85,13.63,4.23,17,11.81,1.79,4,3.6,7.48,8.4,7.56,1.1,0,3.07-1.62,1.12-1.66-5.41-.09-6.61-7.14-8.59-11a20.11,20.11,0,0,0-5-6.66c-4.23-3.44-8.42-3-13.35-1.54-1.72.5-1.35,2,.39,1.47Z" transform="translate(-303.93 -353.18)"/><path class="cls-1" d="M855.46,503.19c15.43-1.16,22.33,16.14,33.09,23.92,6.94,5,20.36,9,27,1.53,1.22-1.37-1.54-1.93-2.44-.91-5.4,6.07-17.11,1.45-22.38-2.33C886,522,882.5,517.3,878.67,513c-6-6.76-13.43-12.74-23-12-1.66.12-2.21,2.34-.24,2.19Z" transform="translate(-303.93 -353.18)"/><path class="cls-1" d="M849.43,502.17a19,19,0,0,0,7.25.38c.56-.08,1.55-.39,1.62-1.07s-.79-.85-1.29-.78a15.17,15.17,0,0,1-5.85-.29,2.23,2.23,0,0,0-2,.55c-.41.46-.34,1.05.32,1.21Z" transform="translate(-303.93 -353.18)"/><path class="cls-1" d="M872.08,546.41a14.07,14.07,0,0,1,7.43,6.8c1.2,2.17,1.62,5.07,3.37,6.91,3.24,3.42,8.31,1.8,11.92.06,1.77-.85.2-2.57-1.32-1.84-2.07,1-3.19,1.41-5.51,1.07-2.73-.4-3.07-1.57-4.16-3.86a42,42,0,0,0-2.29-4.73,15.39,15.39,0,0,0-7.79-6.46c-1.32-.48-3.39,1.41-1.65,2Z" transform="translate(-303.93 -353.18)"/><path class="cls-1" d="M890.83,582.93c2.59-3.32,5.27-6.88,8.85-9.2,3.24-2.09,7-2.9,10.71-3.65,5.51-1.11,10.89-2.15,15.28-5.89,1.5-1.27-.85-2-1.88-1.16-5.85,5-13.78,4.56-20.71,7-6.4,2.24-10.57,7-14.64,12.2-1.11,1.42,1.65,1.67,2.39.72Z" transform="translate(-303.93 -353.18)"/><path class="cls-1" d="M916.22,612.08A11.25,11.25,0,0,1,926.78,614c1.48,1.17,2.62,2.78,4.3,3.71,2.66,1.45,5.55,1.09,8.24,0,1.88-.74.18-1.77-1.16-1.24-4.83,1.92-8.74-4.62-13.07-6a15.06,15.06,0,0,0-9.27.1c-1.71.52-1.34,2,.4,1.5Z" transform="translate(-303.93 -353.18)"/><path class="cls-1" d="M872.85,564c.82,11.27,13,8.05,19.38,3.67,3.09-2.14,6-4.28,9.71-5.24,3.28-.84,6.71-.93,10-1.74,4.12-1,7.65-2.85,10.18-6.32.86-1.18-2.08-1.12-2.74-.22-5,6.9-15.24,4.73-22.28,8.07-2.67,1.26-4.91,3.15-7.36,4.76-5.42,3.55-13.37,4.76-14-3.75-.09-1.16-3-.51-2.9.77Z" transform="translate(-303.93 -353.18)"/><path class="cls-1" d="M809.72,599.82c4.37-.31,8.65-.24,11.29,3.74,1.53,2.31,2.35,4.35,4.85,5.86,4.06,2.45,8.85,2,13.13.44,3.87-1.39.24-2.24-2-1.43-7.1,2.54-8.69-6.78-13-9.49-3.4-2.12-7.93-1.82-11.74-1.56-1.6.12-6.29,2.7-2.48,2.44Z" transform="translate(-303.93 -353.18)"/><path class="cls-1" d="M737.17,494.89a41.41,41.41,0,0,1,4.23-8.7c.73-1.17-.64-1.79-1.61-1.85A4.45,4.45,0,0,0,736,486a46.09,46.09,0,0,0-4.61,9.6c-.44,1.29,1.82,1.45,2.54,1.37,1.25-.14,2.83-.75,3.27-2Z" transform="translate(-303.93 -353.18)"/><path class="cls-1" d="M764.05,414.46c2-11.18,4.4-22.93,11.28-32.27a31.2,31.2,0,0,1,15.28-11.27c4.08-1.39,8.46-2.48,11.94-5.16,2.4-1.85,5.65-6,4.25-9.35s-7.31-3.19-10.11-3.06c-3.41.14-8.83,1.34-10.84,4.47-2.52,3.91,1.83,4.56,4.79,4.34s4.8-3.54.78-3.23c-1.51.11,1.37-1.72,1.45-1.76a7.52,7.52,0,0,1,2.74-.5c1.93-.11,4.56,0,5.32,1.85,1.58,3.79-3.64,6.78-6.35,7.86-6.56,2.6-12.66,4.17-18.23,8.8-11.85,9.87-15.47,25.53-18.09,40-.41,2.23,5.43,1.28,5.79-.72Z" transform="translate(-303.93 -353.18)"/><path class="cls-1" d="M734.77,492.55c1.66-3.56,3.52-7,5.46-10.44.73-1.29-.66-2.32-1.79-2.5a3.79,3.79,0,0,0-3.77,1.79c-1.94,3.42-3.79,6.88-5.45,10.44-1.41,3,4.43,3.09,5.55.71Z" transform="translate(-303.93 -353.18)"/><path class="cls-1" d="M765.81,408.85c2.27-8.24,7.14-15.07,13-21.2,5.46-5.73,12-12.51,20-14.35,8.4-1.92,15.48,4.59,23.65,5.63,5.36.68,11.59-.06,16-3.43,10.49-8-3.68-17.63-12.5-15.78-3.22.67-7,3.44-6,7.25,1.18,4.51,6.75,3.11,9.65,1.52,1.74-1,.15-2.17-1.2-1.42s-4.59.5-5.55-.88c-2.43-3.46,5.81-4.67,7.32-4.51,3.55.36,7.64,2.61,8.72,6.21,1.4,4.66-3.45,7.85-7.36,8.86a23,23,0,0,1-11-.23c-4.89-1.14-9-4.33-13.95-5.23a21.09,21.09,0,0,0-10.09.83c-8,2.54-14.47,9-20.1,14.89-6.09,6.39-11.15,13.56-13.53,22.14-.32,1.19,2.61.81,2.92-.3Z" transform="translate(-303.93 -353.18)"/><path class="cls-1" d="M772.12,431.68c15.91-8.16,33.78-9,50.24-15.31,4.69-1.8,11.08-4.59,12.63-10s-3.81-8.71-8.2-9.93c-7.19-2-21.47-.47-22.32,9.25-.37,4.29,3.3,7.22,7.42,6.63,4.48-.64,7.49-4.46,9.79-8,.28-.43-2.39-.28-2.87.47-1.13,1.75-2.69,4.3-4.55,5.36a4.54,4.54,0,0,1-6.78-3.09c-1.52-6.25,5.67-9.83,10.75-10.07,4.54-.23,11.2,1.11,13.5,5.63,2.51,4.92-2.85,9.38-6.71,11.3-9.17,4.59-20,5.92-29.84,8.4a115.53,115.53,0,0,0-24.76,8.81c-1.71.88.94.91,1.7.52Z" transform="translate(-303.93 -353.18)"/><path class="cls-1" d="M738.36,569a17.83,17.83,0,0,0,21,9.58c5-1.39,9-4.63,13.3-7.4,5.74-3.7,12.67-5.09,18.17-.43a36.42,36.42,0,0,1,5.93,7.05c5.88,8.29,13.09,14.49,23.91,12.44a19.41,19.41,0,0,0,16-19.36c0-.68-2.91-.19-2.9.77.18,14.06-15.38,22.71-26.95,13.78-6.69-5.17-9.25-14.72-17.28-18.34-6-2.7-12.53-.31-17.77,2.92-6.17,3.8-12.24,9.58-20.12,7.29a16.63,16.63,0,0,1-10.44-9.08c-.39-.84-3.21.11-2.89.78Z" transform="translate(-303.93 -353.18)"/><path class="cls-1" d="M739,557.84c5.3,4.53,12.39,3.86,18.72,2.13a115.52,115.52,0,0,0,25.9-11c4.72-2.66,9.26-5.78,14.32-7.78,8.32-3.29,14.94-1.6,22.11,3,6.21,4,12.42,7.38,19.83,4.62,1.9-.71.14-1.43-1.09-1-9.27,3.46-16.76-7-25-9.33-6.32-1.76-13-.13-18.85,2.51-8.38,3.82-15.9,9.22-24.38,12.91s-20.78,9.7-28.82,2.83c-.69-.59-3.36.52-2.71,1.07Z" transform="translate(-303.93 -353.18)"/><path class="cls-1" d="M741.74,538.48c6.35,4.53,17.5,1,24-1.64,8.23-3.38,15.62-9.16,19.74-17.17,2.61-5.06,3.7-10.81,6.78-15.65,4-6.27,9.87-8.6,16.87-10.22,9-2.08,17.38-6,19.24-16,.21-1.18-5.46-.3-5.71,1.06-.81,4.34-2.9,8.37-6.75,10.8-4.19,2.65-9.76,2.75-14.41,4.28a27.67,27.67,0,0,0-14.94,11.1c-4.76,7.46-5.64,16.32-12,22.95-5.7,6-19.34,14.27-27.41,8.52-1.27-.91-6.17,1.43-5.47,1.93Z" transform="translate(-303.93 -353.18)"/><path class="cls-1" d="M873.13,375.54c13.37,4.38,24.32-9.09,37.69-7.21A23.89,23.89,0,0,1,929,381.64c1.68,3.64,2.43,8.14.31,11.78a5,5,0,0,1-8.43.43c-2.07-2.79-2.31-7.36,1.1-9.45,1.67-1-.83-1.54-1.82-.94-6,3.7-4,14.71,3.48,15.05,8.88.41,11.3-10.32,8.59-16.87-3.64-8.78-12.49-14.63-21.87-15.26a30.3,30.3,0,0,0-13,2.24c-7.22,2.81-14.39,7.92-22.44,5.28-1-.31-3.4,1.11-1.76,1.64Z" transform="translate(-303.93 -353.18)"/><path class="cls-1" d="M744.45,543.18c4.46,2.21,9.85.51,14.47-.52A49.63,49.63,0,0,0,775.07,536c11-7,19.28-17.84,31.26-23.39,11.47-5.32,32.5-7.92,34.39,9.27.76,6.94-2.79,19.67-12.39,13.73a10.07,10.07,0,0,1-4.82-8.33c0-5.91,4-6.87,9-5.21,2.25.75,6.81-2.5,3.42-3.63-5.19-1.72-11-2.38-15.17,1.87a11.51,11.51,0,0,0-1.5,13.76c5.6,9.71,20.73,8.42,25.73-1.2,2.68-5.17,2.4-13.07,0-18.29s-7.55-8.23-13.13-9.33c-13.3-2.65-27.66,2.63-38.27,10.49-6.44,4.78-12.09,10.54-18.53,15.32a45,45,0,0,1-11,6.27,47.07,47.07,0,0,1-7,1.93c-2.2.45-6,1.86-8.15.78s-7.22,1.81-4.52,3.15Z" transform="translate(-303.93 -353.18)"/><path class="cls-1" d="M745.7,577.26c6.41,4.14,13.95,3.5,20.33-.42,9.39-5.78,17.12-14.23,26.09-20.64,5.76-4.11,12.28-7.65,19.59-7,7,.61,9.85,5.78,10.82,12.2.92,6-3.25,15.41-11,13.32-7.08-1.91-7.64-13.78.07-15.41,3.49-.74,2.81-3.19-.66-2.46-5,1.06-9.94,4.44-10.77,9.85s3.41,10.16,8.52,11.09,11.15-1.66,15.08-4.91c5-4.09,5.56-10.13,3.8-16-2-6.6-5.62-9.9-12.59-10.58-6.42-.62-13,1.14-18.76,4-7.11,3.5-13.16,8.73-19.26,13.7l-9.69,7.9c-5,4-9.91,7.35-16.19,3.29-1.57-1-6.7,1.32-5.42,2.15Z" transform="translate(-303.93 -353.18)"/><path class="cls-1" d="M746.55,580.74c2,7,9.39,9.24,15.94,7.69,3.66-.86,6.65-3,10.13-4.21,8.3-3,12.55,5.36,15.89,11.17,4.07,7.08,8.79,17.19,17.93,18.47,5.47.76,12.66-1.61,14.68-7.13.36-1-5.17-.44-5.71,1-4.31,11.78-16.49-5.89-19-10.2-3.07-5.3-6.09-12.54-11.88-15.48-4.21-2.15-9.1-1.11-13.28.56-3.51,1.4-7.25,4.51-11.2,3.84a10,10,0,0,1-7.72-7.3c-.36-1.26-6.15.32-5.79,1.56Z" transform="translate(-303.93 -353.18)"/><path class="cls-1" d="M776.12,471.56c7.47-6.64,18.13-12.58,28.19-7.95,4.32,2,8,5.5,12,8,6.82,4.2,16.51,6,21.29-2.18.36-.62-4.87-.39-5.71,1-2,3.43-4.25,2.33-7.33.77a58.2,58.2,0,0,1-6.9-4.33c-3.5-2.46-6.84-5.25-11.06-6.34-12.78-3.3-26.35,3.15-35.72,11.49-1.15,1,4.19.43,5.23-.49Z" transform="translate(-303.93 -353.18)"/><path class="cls-1" d="M862.41,523.69c5.4.46,8.22,2.23,11,6.68,2.1,3.4,4,6.94,6.13,10.29,3.15,4.87,7,9.56,12.16,12.4,7.61,4.19,19.93,3.53,23.55-5.75s-8.24-14.78-15.27-9.86c-6.87,4.82-.27,14.69,6,9.16,1.47-1.3-.82-2.38-1.94-1.38q-5.16.32-4-3.1c0-3.12,2.25-4.54,6.73-4.23a6.77,6.77,0,0,1,6,4.83c1.12,4.7-2.76,8.71-6.88,10-7.69,2.5-15-2.4-19.8-8-4.29-5-7-11-10.55-16.5-3.09-4.81-6.53-6.29-12.14-6.76-1.45-.12-2.94,2-1,2.17Z" transform="translate(-303.93 -353.18)"/><path class="cls-1" d="M354.29,480.24c-.61-10.95,6.55-24.74,18.77-25.82,5.78-.51,8.92,4.29,11,9,2.77,6.37,4.29,13.5,6,20.21,7.19,28.31,10.6,60.1-4.18,86.69-5.36,9.64-16.07,24.51-28.71,23.34-12.33-1.15-20.18-15.37-25-25.19-11.81-24.22-16.88-53.09-10.76-79.58,3.27-14.12,9.63-28.52,20.31-38.62,8.35-7.9,25.29-13.83,33.84-2.54,2.47,3.25,6.45,4.86,10.27,2.69,3.2-1.82,5.13-7,2.69-10.26-10.5-13.86-28.79-16.8-44.25-9.68-15.08,7-25.25,22.15-31.56,37-14,32.88-10.16,70.58,3.83,102.77,6.47,14.88,16.06,31.06,32.18,36.81,17.83,6.36,34-6.66,44.17-20.09,23.48-31.1,20.53-72.56,11.36-108.23C400,462,393.85,437.18,371.5,439.58c-19.47,2.1-33.25,21.84-32.21,40.66.53,9.6,15.54,9.66,15,0Z" transform="translate(-303.93 -353.18)"/><path class="cls-1" d="M414.12,466.13C432.49,519.58,426.49,576.9,420.6,632c-.61,5.65,5.26,10.5,10.5,10.5,6.18,0,9.89-4.83,10.5-10.5,6.08-56.93,11.76-116.2-7.23-171.43-4.37-12.71-24.66-7.25-20.25,5.58Z" transform="translate(-303.93 -353.18)"/><path class="cls-1" d="M445.61,559.69c4.4-16,8.74-32.21,15.82-47.23a115.94,115.94,0,0,1,12.47-21.13c1.94-2.54,10.29-14.28,14.58-11.4.55.37,1.25,3.52,1.49,4.55a110.87,110.87,0,0,1,1.83,12.32c1.08,9.67,1.77,19.68.41,29.36-1.91,13.68-8.74,29.08-22.07,35a26.15,26.15,0,0,1-18.87.94c-5.19-1.77-11.74-6.89-9.78-13.1,4.06-12.92-16.2-18.45-20.25-5.58-7.57,24.07,18.77,42.12,40.14,40.9,23.25-1.33,40.09-18.44,47.74-39.48,4.11-11.31,5.15-23.79,4.66-35.74-.25-6.35-1-12.67-1.81-19-.71-5.34-1.21-10.79-3.16-15.84-4.64-12-16.49-18.23-29-14.42-11.38,3.45-19.56,14.32-26,23.66-14.56,21-21.65,46.21-28.36,70.52-3.6,13,16.66,18.62,20.25,5.59Z" transform="translate(-303.93 -353.18)"/><path class="cls-1" d="M542.84,435.92c.44,28.79-1.84,57.55-3,86.3-1.16,27.58,1.57,55.39,17.17,79,3.12,4.72,9.28,6.74,14.36,3.76,4.7-2.74,6.91-9.61,3.77-14.36-14.44-21.84-15.32-46.84-14.13-72.19,1.28-27.47,3.29-55,2.87-82.49-.21-13.5-21.21-13.54-21,0Z" transform="translate(-303.93 -353.18)"/><path class="cls-1" d="M525.38,506.69c9.13.78,18-.89,27.1-1.57,6-.46,14.82-1.08,19.95,3.05,4.41,3.55,10.53,4.31,14.85,0,3.67-3.68,4.44-11.28,0-14.85-8.62-6.93-18.85-9.56-29.82-9.43-10.76.13-21.29,2.73-32.08,1.8-5.66-.49-10.5,5.17-10.5,10.5,0,6.08,4.83,10,10.5,10.5Z" transform="translate(-303.93 -353.18)"/><path class="cls-1" d="M593.53,478.78c.66,18.29,1.13,36.59,2,54.86.86,18.06,6,33.88,17.65,47.88,3.63,4.36,11.1,3.75,14.85,0,4.32-4.32,3.64-10.48,0-14.85-9.45-11.36-11.2-24.66-11.72-38.91q-.9-24.5-1.77-49c-.48-13.47-21.48-13.54-21,0Z" transform="translate(-303.93 -353.18)"/><path class="cls-1" d="M599.71,441.29c-.69-1.79-.87-2.17-.53-1.14s.2.64-.14-1.34q.56-9.1,14.9-5.72,2.61,5.42,1.8,2.82a4.13,4.13,0,0,1,.14,2.55c-.18,1-.18,1,0,.18a7,7,0,0,1-6.51,4.68q-6.15-.63-7.53-5.43c.12.34.22.69.31,1.05a15.67,15.67,0,0,0,.36,1.68c-.21-1.83-.27-2.18-.2-1.06s.06.76.26-1.13c-.29,1.06-.12.71.52-1.05,1.2-1.36,1.39-1.7.56-1l12.73-1.65c-.94-.48-.62-.2,1,.86a6.62,6.62,0,0,1,1.8,3,6.69,6.69,0,0,1-.06,3.71c-.88,1.74-1,2.15-.47,1.25,3-4.59,1.06-11.82-3.76-14.37A10.76,10.76,0,0,0,600.5,433c-4.26,6.41-1.73,16.52,5.29,19.92,4.71,2.28,8.74,1.45,12.72-1.64,5.67-4.41,5.64-13.3,3.39-19.44-2-5.5-6.52-9.27-12.52-9.48-5-.18-9.68,2.91-12.23,7.11-5.18,8.55-.43,22,10.54,22.19a12.24,12.24,0,0,0,11.84-8.92c1.1-4.27.11-8.15-1.69-12-2.33-5-9.9-6.64-14.36-3.76-5.14,3.31-6.26,9-3.77,14.36Z" transform="translate(-303.93 -353.18)"/><path class="cls-1" d="M637.24,472.54,639,577.78h21a133.42,133.42,0,0,1,3.43-40.08c2.56-10.33,5.93-23.49,14.61-30.53a18.72,18.72,0,0,0,2.25-1.5,1,1,0,0,1,1-.36l-4.74-1.77c-.35.24,1.82,8.07,2,9A148.21,148.21,0,0,1,680,531.74q.79,21.5,1.51,43a10.52,10.52,0,0,0,9.1,10.31c4.69.56,10.7-2.3,11.52-7.52,2.62-16.6,5.53-33.17,8.93-49.63,2.89-14.07,6.28-28.62,14.46-40.66,1.1-1.63,1-.63-1.48-.66,3,0-1.84.24-1.56-.36.07-.15.15.27.18.21-.13.27.59,3.57.61,4,.11,2.22.12,4.44.16,6.66.19,8.85.29,17.71.53,26.57.44,16.83,1.2,33.85,4.07,50.47,2.6,15.06,9.54,29,24.47,34.76,5.29,2,11.51-2.25,12.91-7.33,1.63-5.93-2-10.87-7.33-12.92-3.39-1.3-6-6-7.39-10.22-2.2-6.6-3-13.53-3.75-20.43-1.91-18.6-2.07-37.31-2.41-56-.17-8.94.74-19.15-4.3-27s-15.44-11.6-24-7c-7.14,3.86-11.36,11.95-14.61,19.06A138.24,138.24,0,0,0,693.11,512c-4.82,19.71-8.05,39.9-11.22,59.93l20.63,2.79c-.63-18-.71-36.07-2.06-54-.66-8.74-1.45-18.44-5.21-26.48-4.33-9.28-14.5-11.77-23.48-7.67-14.85,6.78-22.08,23.64-26.56,38.31A151.53,151.53,0,0,0,639,577.78c.8,13.38,21.24,13.63,21,0l-1.79-105.24c-.23-13.5-21.23-13.54-21,0Z" transform="translate(-303.93 -353.18)"/><path class="cls-1" d="M354,484.27c2.59-7,7.85-20.61,17.52-19.12,9.16,1.41,13,14.54,15.09,22,6.84,23.89,8.78,50.71-2.47,73.62-4.76,9.7-11.81,19.33-21.17,25.06-5.2,3.17-9.57,2.78-13.91-1.53s-6.92-10-9.31-15.43c-9.93-22.71-19.43-48.6-14.73-73.74,2.32-12.41,7.85-24.36,17.82-32.45,9.09-7.38,21.17-11.15,32.73-8.47,5.6,1.29,10.41-5.76,5.84-10-10.88-10.18-26.34-11-39.48-4.89-5.84,2.73-13,7.37-16.53,12.89-3.94,6.1.88,14.13,8.28,12.1s4.28-13.61-3.19-11.57l-.93.26,4.62.6.81.61.6,4.62c.44-2.24,5.51-5.16,7.47-6.43a31.84,31.84,0,0,1,10.29-4.49c6.91-1.57,14.33-.13,19.58,4.79l5.83-10C350,435.93,324,456.71,315.6,483.28c-9.8,30.88,1.37,63.25,13.79,91.6C334.7,587,344.46,602.66,360,599.81c13.27-2.43,24.55-16,31.17-26.95,16.75-27.59,15.34-61.74,6.19-91.65-3.85-12.61-12-28.1-27.17-28.12s-23.19,15.61-27.77,28c-2.69,7.25,8.91,10.38,11.57,3.19Z" transform="translate(-303.93 -353.18)"/><path class="cls-1" d="M330.63,580.18c9.92,7,22.31,12.3,34.58,12.68,12.8.4,22.08-9.13,29.6-18.39,4.83-6-3.61-14.49-8.48-8.49-5.89,7.26-12.74,15.85-23,14.75-9.64-1-18.82-5.39-26.66-10.91-6.33-4.46-12.33,5.94-6.06,10.36Z" transform="translate(-303.93 -353.18)"/><path class="cls-1" d="M358,600a98,98,0,0,0,44.83-59.26c2-7.47-9.61-10.66-11.57-3.19a85.71,85.71,0,0,1-39.32,52.09c-6.64,3.93-.61,14.3,6.06,10.36Z" transform="translate(-303.93 -353.18)"/><path class="cls-1" d="M327,466.7c-6.08,18.69-9.81,38.39-7,58,2.41,16.78,10,34.57,23.85,45.1,14.87,11.35,33.54,4.75,43.79-9.36,10.09-13.9,14.07-32.84,14-49.75a100,100,0,0,0-16.51-55c-4.25-6.41-14.65-.4-10.36,6.05,15.7,23.64,19.47,54.35,8.89,80.85-4.8,12-17.66,28-31.85,18.23-11.61-8-17.68-23.54-19.9-36.94-3-18.2,1-36.78,6.63-54.06,2.39-7.36-9.19-10.51-11.58-3.19Z" transform="translate(-303.93 -353.18)"/><path class="cls-1" d="M326.14,561.1c7.63,13.95,23.81,20.92,39.22,17.63,5.67-1.21,5.79-10.44,0-11.58l-14.49-2.83c-6.84-1.34-10.15,6.95-4.63,11,10.63,7.72,23.39,2.54,33.33-3.54l-6.05-10.37a204.5,204.5,0,0,0-20.73,15.12c-5.51,4.56,1.51,12.3,7.27,9.42l14.31-7.14-7.27-9.42a34.82,34.82,0,0,1-9.05,6.5c-6,3-1.8,13.36,4.62,11a28.82,28.82,0,0,0,11.1-7.09c5.35-5.57-3.13-14.06-8.49-8.48a15.23,15.23,0,0,1-5.8,4l4.63,11a46,46,0,0,0,11.48-8.39c5-5-1.32-12.4-7.27-9.42L354,575.55l7.27,9.42a179.68,179.68,0,0,1,18.29-13.23c6.5-4.13.57-14.42-6.05-10.37-6.36,3.9-14.21,8.64-21.22,3.55l-4.62,11,14.49,2.84V567.15a23.89,23.89,0,0,1-25.67-12.1c-3.71-6.78-14.07-.73-10.36,6.05Z" transform="translate(-303.93 -353.18)"/><path class="cls-1" d="M435.61,469.68c-3.94-4.69-4.21-11.42-10.35-14.33-7.3-3.45-14.76,2-16.43,9.24-1.05,4.6.49,9.3,1.67,13.71q1.69,6.36,3.11,12.79A296,296,0,0,1,418.52,521c4.44,39.48,2.24,79.32-.24,118.86-.48,7.71,11.52,7.69,12,0,2.13-33.94,4-68,1.74-102a342.79,342.79,0,0,0-6.84-49.92q-1.2-5.5-2.63-11c-.79-3-3.15-7.73-1.59-10.76-.93-.28-1.16-.21-.68.22.19.3.38.62.55.93a23.22,23.22,0,0,0,1.8,3.64,32.59,32.59,0,0,0,4.49,7.21c5,5.92,13.43-2.61,8.49-8.49Z" transform="translate(-303.93 -353.18)"/><path class="cls-1" d="M419.94,588.6a341.36,341.36,0,0,1-9.42,67.09c-1.32,5.43,5.94,10.65,10,5.83,8.55-10.08,17.3-20.81,19.36-34.28,1.15-7.55-8.91-10.58-11.57-3.19a121.25,121.25,0,0,1-8.58,18.59c-3.3,5.85,4.6,12.25,9.43,7.27a61.06,61.06,0,0,0,11.67-16.84l-11-4.63A75.24,75.24,0,0,1,411,655.39l9.42,7.27A114.78,114.78,0,0,0,436.2,605c0-7.73-11.86-7.73-12,0q-.21,12,.45,24.05c.31,5.53,8.34,8.7,11.18,3A51.57,51.57,0,0,0,441.3,612c.51-7.7-11.49-7.67-12,0a36.33,36.33,0,0,1-3.83,14l11.18,3q-.66-12-.45-24.05h-12A102.32,102.32,0,0,1,410,656.6c-3.52,6,4.47,11.85,9.42,7.27a88.56,88.56,0,0,0,22-32.24c2.54-6.25-8.11-10.78-11-4.62a51,51,0,0,1-9.8,14.41l9.43,7.27a139.63,139.63,0,0,0,9.78-21.45l-11.57-3.19c-1.76,11.48-9,20.38-16.28,29l10,5.84a357.78,357.78,0,0,0,9.85-70.28c.31-7.72-11.69-7.71-12,0Z" transform="translate(-303.93 -353.18)"/><path class="cls-1" d="M435.46,466.13c-1.67-5.11-5.15-11.2-10.78-12.59-6.9-1.7-11.36,4.45-11.69,10.61-.18,3.24,2.88,6,6,6a6.11,6.11,0,0,0,6-6c.05-1.07-.24.27.07-.28s-.18.31-.26.37c-1,.75-2,.37-3,.93-.37.21-.48-.56-.2.13s.78.92,1.27,1.76a7.44,7.44,0,0,1,1,2.26,6.13,6.13,0,0,0,7.38,4.19,6.05,6.05,0,0,0,4.19-7.38Z" transform="translate(-303.93 -353.18)"/><path class="cls-1" d="M444.07,505.31l-.33,0,5.79,4.4c.47,2.24,1.18-.87,1.58-1.73.51-1.07,1.07-2.12,1.65-3.15,1.31-2.33,2.77-4.58,4.28-6.79a85.45,85.45,0,0,1,10-12.54c5.63-5.58,15.8-10.81,22.83-4.38,5.69,5.2,14.2-3.26,8.49-8.49-10.79-9.86-26.25-7.08-36.79,1.65-5.92,4.91-10.53,11.39-14.85,17.7C443,497.33,436.51,506,438,512.88c.58,2.74,3.25,4.18,5.78,4.41l.33,0c7.69.69,7.64-11.32,0-12Z" transform="translate(-303.93 -353.18)"/><path class="cls-1" d="M443.19,568.93c4.36-7.09,6.08-15.45,8.85-23.21a208.31,208.31,0,0,1,10.54-24.42,218.87,218.87,0,0,1,13.36-22.76,59.9,59.9,0,0,1,6.61-8.6c1.25-1.3,3.54-2.42,4.56-3.77,2.08-.62,1.78-1.45-.88-2.47.26.86.49,1.72.69,2.59,2,8.41,1.95,17.3,1.81,25.9-.13,8.35-1.82,15.65-6.34,22.72a61.28,61.28,0,0,1-16.29,16.72c-7.85,5.51-15.81,4.26-24.7,2.19-7.52-1.74-10.73,9.83-3.19,11.58,8.25,1.91,17.17,3.75,25.46,1,7.15-2.39,13.39-7.69,18.74-12.86,11.69-11.3,18.08-25,18.32-41.32.15-9.66,2.31-44.45-15.58-38.34-7,2.38-12.16,8.35-16.39,14.08a188.54,188.54,0,0,0-13.67,21.86A233.71,233.71,0,0,0,443,535.93c-3.45,8.76-5.18,18.9-10.12,26.94-4.05,6.6,6.33,12.64,10.36,6.06Z" transform="translate(-303.93 -353.18)"/><path class="cls-1" d="M562,488.48a139.5,139.5,0,0,0,3.78-28.54c.16-6.81.37-14.11-1.55-20.71-2-6.75-7.78-14.36-15.74-11.74-8.5,2.8-9.16,13.29-8.91,20.72,1.3,39.16-11.1,77.86-3.2,117,3.73,18.42,12.28,35.89,26.06,48.86,5.62,5.29,14.13-3.18,8.49-8.49-21.62-20.34-26.26-50.35-25.16-78.74.63-16.32,3-32.43,4.73-48.64a193,193,0,0,0,1.3-23.67c-.06-3.56-.45-7.15-.26-10.7.06-1.18,1.15-3.9.91-4.84,0,0-1.42-.47-1.35.17,0,.41.8,1.26,1,1.68,2.39,5.09,1.77,11.79,1.71,17.26a124.36,124.36,0,0,1-3.38,27.23c-1.77,7.51,9.8,10.71,11.57,3.19Z" transform="translate(-303.93 -353.18)"/><path class="cls-1" d="M543.21,580.49c2.56,11.62,8.15,21.91,15.77,31,5,5.92,13.42-2.61,8.48-8.49a59.55,59.55,0,0,1-12.68-25.68c-1.67-7.54-13.24-4.35-11.57,3.19Z" transform="translate(-303.93 -353.18)"/><path class="cls-1" d="M748.83,603.07c4.67,9.26,15.57,7.94,22.7,2.35,2.56-2,6.1-5.21,3.1-8.4-3.19-3.4-10-3.42-14.25-4.17-3.76-.66-5.41,5-1.6,5.79,1.15.23,5.68.71,6.43,1.75l-.3-2.31a5.56,5.56,0,0,1-3.23,2.19c-3.61,1.3-2,7.1,1.59,5.79,3-1.07,8.2-3.56,7.48-7.58s-7.16-5-10.37-5.63l-1.6,5.79,6.41,1.13c1.15.2,4.37.38,5.08,1.39v-3c-1.15,2.6-5.22,4.69-7.73,5.44-3.75,1.11-6.76,0-8.53-3.53s-6.92-.41-5.18,3Z" transform="translate(-303.93 -353.18)"/><path class="cls-1" d="M754.37,593.92a42.88,42.88,0,0,0,26.27,2.73l-3.38-4.41a28.58,28.58,0,0,1-17.85,11.26c-3.78.77-2.18,6.56,1.6,5.79a34.76,34.76,0,0,0,21.43-14c1.66-2.29-1.08-4.88-3.39-4.4a35.82,35.82,0,0,1-21.65-2.13c-3.51-1.51-6.57,3.66-3,5.18Z" transform="translate(-303.93 -353.18)"/><path class="cls-1" d="M563.38,578.21c-2.1,2-1.1,4.18.23,6.33a109.9,109.9,0,0,0,7.94,11.23c5.3,6.55,11.77,11.76,19.74,14.61V604.6c-8.26,3-20.72,7.37-26.94-1.69-2.17-3.16-7.37-.17-5.18,3,8,11.68,22.35,8.58,33.72,4.44a3,3,0,0,0,0-5.78,36.46,36.46,0,0,1-14.27-9.8,64.12,64.12,0,0,1-5.49-6.81c-1.53-2.14-4.56-5.49-5.16-8.06l-.77,2.92.42-.4c2.79-2.68-1.46-6.92-4.24-4.24Z" transform="translate(-303.93 -353.18)"/><path class="cls-1" d="M566.89,607.63a20.24,20.24,0,0,0,15.57,3.13c2.57-.48,2.88-4.3.72-5.48a34.67,34.67,0,0,0-11.33-3.95c-3.73-.6-5.43,4.82-1.6,5.78l10,2.52c2.65.67,5.43-3.06,2.91-5a37.68,37.68,0,0,0-10.49-5.81l-1.6,5.78a28.34,28.34,0,0,1,6,2c3.47,1.64,6.52-3.53,3-5.18a35.18,35.18,0,0,0-7.44-2.62,3,3,0,0,0-1.6,5.78,28.63,28.63,0,0,1,7.85,4.27l2.92-5-10-2.52-1.6,5.78a30.13,30.13,0,0,1,9.9,3.35l.72-5.48a14.25,14.25,0,0,1-11-2.53c-3.18-2.21-6.18,3-3,5.18Z" transform="translate(-303.93 -353.18)"/><path class="cls-1" d="M543.54,584.51c2,7.32,6.16,13.66,10.46,19.81,3.6,5.16,7.65,9.81,13.45,12.52a30.71,30.71,0,0,0,32.44-4.17c2.47-2-.25-5.61-2.92-5a114.42,114.42,0,0,0-16.4,5,3,3,0,0,0,1.6,5.78,37.07,37.07,0,0,0,16-7.16,3.05,3.05,0,0,0-.71-5.48,22.61,22.61,0,0,0-9.61-1.66c-3.22.12-4.28,5.28-.8,5.9l10,1.77.8-5.9-8.53-.94c-2.92-.32-4.13,4.36-1.51,5.59a20.59,20.59,0,0,0,11,2.11c3.1-.27,4.38-5.31.79-5.89l-5-.82-.8,5.89a40.88,40.88,0,0,0,7.08-.34c3.77-.5,3.83-6.51,0-6a40.88,40.88,0,0,1-7.08.34c-3.31-.13-4.18,5.34-.8,5.89l5,.82.8-5.89a14.7,14.7,0,0,1-8-1.29L589.33,611l8.53.94c3.33.37,4.12-5.3.8-5.89l-10-1.77-.8,5.89a18.74,18.74,0,0,1,8,1.44l-.72-5.48a33.66,33.66,0,0,1-14.57,6.56l1.6,5.78a115.58,115.58,0,0,1,16.39-5l-2.92-5a24.51,24.51,0,0,1-27.56,2c-4.67-2.79-7.73-7.34-10.7-11.76-3.32-5-6.49-9.9-8-15.73-1-3.72-6.8-2.14-5.79,1.6Z" transform="translate(-303.93 -353.18)"/><path class="cls-1" d="M560.37,612.19a7,7,0,0,0,1.79,1.54l1.13-1.94c-.94-.42-1.52-1.28-2.52-1.65s-1.83,1.12-1.1,1.88a12.15,12.15,0,0,0,3.81,2.65c1.09.47,2.37-.82,1.36-1.77a32,32,0,0,0-3.91-3.14c-1-.65-2.07.61-1.54,1.54,1.32,2.32,3.55,3.53,5.91,4.6,1.29.59,2.42-1.23,1.13-1.94a39.52,39.52,0,0,1-5.25-3.44c-1.11-.87-2.67.56-1.59,1.59a15.08,15.08,0,0,0,8.19,4.06c1.42.21,2-2,.6-2.17a13,13,0,0,1-7.2-3.48l-1.59,1.59a41,41,0,0,0,5.71,3.79l1.13-1.94c-2-.9-4-1.83-5.1-3.79l-1.54,1.54a26.49,26.49,0,0,1,3.46,2.78l1.37-1.76a10.64,10.64,0,0,1-3.36-2.3l-1.09,1.88c.75.28,1.24,1.09,2,1.42a1.12,1.12,0,0,0,1.13-1.94,5.07,5.07,0,0,1-1.33-1.2c-.92-1.12-2.5.48-1.59,1.6Z" transform="translate(-303.93 -353.18)"/><path class="cls-1" d="M563.94,614.27a8,8,0,0,0,2.49,1,1.12,1.12,0,1,0,.59-2.17,7,7,0,0,0-1.92-.47,1.13,1.13,0,0,0-.79,1.92,7.54,7.54,0,0,0,3,1.67,1.12,1.12,0,1,0,.59-2.17,10.44,10.44,0,0,0-1.83-.55c-1.18-.25-2.06,1.45-.86,2.06a16.86,16.86,0,0,0,1.85.79,1.13,1.13,0,0,0,1.38-.78,1.17,1.17,0,0,0-.79-1.39,3.42,3.42,0,0,0-1.23-.21,1.13,1.13,0,0,0-.3,2.21l1,.32.59-2.17a4.13,4.13,0,0,1-1.7-.78,1.12,1.12,0,1,0-1.59,1.59,6.7,6.7,0,0,0,2.7,1.36,1.13,1.13,0,0,0,.59-2.17l-1-.32-.3,2.21a1.78,1.78,0,0,1,.64.13l.59-2.17a10.81,10.81,0,0,1-1.31-.57l-.86,2.06a11,11,0,0,1,1.83.55l.59-2.17a5,5,0,0,1-2-1.09l-.8,1.92a5.2,5.2,0,0,1,1.33.39l.59-2.17a6.37,6.37,0,0,1-1.95-.8c-1.23-.77-2.36,1.18-1.13,1.94Z" transform="translate(-303.93 -353.18)"/><path class="cls-1" d="M587.68,605c5.36,3,13.67,2.7,18.43-1.27l-1.77-1.36a11.12,11.12,0,0,1-3.42,3.54c-1.18.81-.06,2.76,1.14,1.94a14.67,14.67,0,0,0,4.22-4.34c.74-1.14-.84-2.14-1.76-1.37-3.9,3.26-11.33,3.4-15.7.92a1.13,1.13,0,0,0-1.14,1.94Z" transform="translate(-303.93 -353.18)"/><path class="cls-1" d="M604.6,602.62c-.51,5.07-5.62,8.59-10,10.06l.6,2.17c4.06-1.54,6.46-4.79,9.73-7.5L603.17,606a19.87,19.87,0,0,1-4.93,5.52l1.59,1.59a28.78,28.78,0,0,0,6.47-7.65l-1.94-1.13c-4.41,10.09-16.79,13.84-27,12-1.41-.26-2,1.9-.59,2.17,11.09,2,24.69-1.94,29.52-13,.56-1.29-1.19-2.41-1.94-1.13a27.47,27.47,0,0,1-6.12,7.19c-1.12.94.47,2.46,1.59,1.59a21.28,21.28,0,0,0,5.29-6c.7-1.16-.83-2.14-1.77-1.36-2.88,2.39-5.13,5.55-8.74,6.92-1.33.5-.79,2.63.6,2.17,5.51-1.85,11-6.07,11.64-12.23.15-1.43-2.1-1.42-2.25,0Z" transform="translate(-303.93 -353.18)"/><path class="cls-1" d="M541.68,580.88c3.87,11.7,10.09,25.3,20.61,32.44,1.2.81,2.32-1.14,1.13-2-9.91-6.72-15.93-20.08-19.57-31.09-.46-1.37-2.63-.78-2.17.6Z" transform="translate(-303.93 -353.18)"/><path class="cls-1" d="M554.69,600.8l-.85-.9c-.72-.78-2.32,0-1.88,1.09a27.83,27.83,0,0,0,12.14,13.79,1.12,1.12,0,0,0,1.13-1.94,25.48,25.48,0,0,1-11.1-12.44l-1.88,1.09.85.91c1,1.06,2.57-.54,1.59-1.6Z" transform="translate(-303.93 -353.18)"/><path class="cls-1" d="M768.74,425.46c4.51-2.58,9.54-2.26,14.52-3a33.66,33.66,0,0,0,11.92-4.1c5-2.94,9.79-9.55,4.92-14.85-3.45-3.76-10.07-4.07-13.93-.83a6.62,6.62,0,0,0,1.76,11.43c1.25.47,3.39-1.33,1.66-2-4.29-1.61-4.1-7.64.61-9.27,2.68-.92,6.68.63,8.14,3,4.1,6.81-5.38,11.73-10.27,13.31-6.82,2.21-14.26.88-20.63,4.53-1.7,1-.15,2.56,1.3,1.73Z" transform="translate(-303.93 -353.18)"/><path class="cls-1" d="M765.05,413.4c4.48-11,14.86-20.42,24.86-26.46,6.37-3.85,13.8-6.11,21.16-4.06,3.28.91,7.22,3.12,5.31,6.93-1.12,2.24-3.92,3-6.26,3.25l-3.44,0q-5.46-1.44-1.64-4.29c2.18.19,6.16-2.87,2.28-3.22-3.33-.29-9.29.88-9.82,5.07-.62,4.94,5.93,5.81,9.36,5.75,4.75-.08,10.51-1.44,13.92-5,3.16-3.28,2.44-7.25-1.3-9.68-10.25-6.68-25.43-1.47-34.62,4.53-10.38,6.78-20.83,16.26-25.6,27.93-.73,1.78,5,1.13,5.79-.75Z" transform="translate(-303.93 -353.18)"/><path class="cls-1" d="M767.21,434.69c.6,6.71,1.75,12.69,7.26,17.11a26.13,26.13,0,0,0,17.78,5.69c8.29-.59,22.69-8.8,17.83-19-4.45-9.36-20.41-14-26.2-3.27a8.56,8.56,0,0,0,3.7,11.86c5,2.64,10.86.91,15.13-2.21,3.17-2.32-1.64-3.79-3.74-2.25-3.48,2.54-9.14,2.05-10.25-2.74a5.76,5.76,0,0,1,5.66-7c2.11,0,4.19,1.28,5.78,2.5,5.91,4.56,6.26,11.23,0,15.78-5.92,4.28-14,2.55-19.61-1.33-5.87-4-6.93-10.06-7.51-16.68-.21-2.33-6-1-5.8,1.55Z" transform="translate(-303.93 -353.18)"/><path class="cls-1" d="M796.38,422.6c4.15.94,9.68-.6,13.34,1.64,3,1.83,3.94,5.69,6.29,8.15,3.59,3.76,9.33,4.61,14.21,3.44,4.41-1.05,10.13-4.55,9.85-9.76-.38-7.25-9.35-7.85-14.75-7.69-.85,0-3.15,1.34-1.23,1.28,5.14-.15,15.24,1.53,12.79,9.25-2.35,7.39-12.8,7.47-17.71,2.87-2.87-2.69-3.75-7-7.4-8.89-4-2.06-8.82-.52-13-1.48-.72-.16-3.26,1-2.36,1.19Z" transform="translate(-303.93 -353.18)"/><path class="cls-1" d="M743,501.16c4.8-3.1,11.29-7.32,17.25-7.13,6.82.22,10.59,7,10.75,13.1.14,5.39-2.27,11.59-7.29,14.12-7.51,3.79-13.31-7.92-5.95-11.58,3.59-1.78.29-3.7-2.3-2.41-7.13,3.55-10.14,13.71-1.29,17.6,8,3.51,17.38-3,20.75-10,3.86-8,1.89-19.83-7.3-23.21-9.44-3.47-20.53,2.77-28.22,7.76-3.28,2.12,1.73,3,3.6,1.74Z" transform="translate(-303.93 -353.18)"/><path class="cls-1" d="M743.34,499.46c14.35-3.88,24.18-14.09,35.44-23.09,4.46-3.55,11.91-8.7,18-5.53,3.08,1.61,4.77,5.44,4.52,8.84-.32,4.49-5.83,12.37-11.31,8.95a7.4,7.4,0,0,1-2.87-3.92c-.56-1.87,0-6.66,2.9-6.85,1.56-.1,6.3-2.61,2.5-2.36s-8.57,1.72-10.57,5.44c-2.37,4.44.56,9.76,5.32,10.81,8.41,1.87,20.56-5.76,19.82-15-1.09-13.43-18.82-9.14-26.49-4.89-13.44,7.45-22.28,21.59-37.71,25.75-3.35.91-2.92,2.75.49,1.83Z" transform="translate(-303.93 -353.18)"/><path class="cls-1" d="M865.49,400.53a52.84,52.84,0,0,1,17-5,34.7,34.7,0,0,1,9,.29,27.58,27.58,0,0,1,8.64,3c2.7,1.44,5,3.23,7.55,4.42a15.65,15.65,0,0,0,3.85,1.36,19,19,0,0,0,2,.33c.68,0,1.35.11,2,.07a15.8,15.8,0,0,0,4-.48c1.35-.31,2.75-.77,4.21-1.16a39.6,39.6,0,0,1,4.48-.95c1.48-.22,3-.4,4.48-.52a26.67,26.67,0,0,1,9.28.67,13.12,13.12,0,0,1,4.42,2.14,11.05,11.05,0,0,1,3.17,3.87,12.78,12.78,0,0,1,.89,9.6,8.94,8.94,0,0,1-2.92,4.13,11.2,11.2,0,0,1-4.46,2,14.75,14.75,0,0,1-9.29-1,8.21,8.21,0,0,1-3.68-3.19,7.38,7.38,0,0,1-.73-4.78,7.77,7.77,0,0,1,2.06-4.26,6.25,6.25,0,0,1,2-1.34,6.65,6.65,0,0,1,2.31-.46,8,8,0,0,1,4.36,1.23,9.16,9.16,0,0,1,3.07,3.18,8.37,8.37,0,0,0-7.38-3.62,5.22,5.22,0,0,0-3.53,1.77,6.54,6.54,0,0,0-1.49,3.67,6.23,6.23,0,0,0,.76,3.76,6.49,6.49,0,0,0,3,2.32,13.09,13.09,0,0,0,8,.49,8.87,8.87,0,0,0,3.46-1.72,6.72,6.72,0,0,0,2-3,10.21,10.21,0,0,0-.91-7.52,9,9,0,0,0-5.92-4.49,23.83,23.83,0,0,0-8.25-.49c-1.41.11-2.85.31-4.28.52a35.68,35.68,0,0,0-4.16.85c-1.38.36-2.79.8-4.31,1.15a19.52,19.52,0,0,1-4.7.52,23.46,23.46,0,0,1-2.36-.12,20.91,20.91,0,0,1-2.34-.43,19.3,19.3,0,0,1-4.42-1.68c-2.77-1.44-5.11-3.28-7.54-4.72a25.72,25.72,0,0,0-7.84-3.09,32.83,32.83,0,0,0-8.53-.75,60.1,60.1,0,0,0-17.09,3.48Z" transform="translate(-303.93 -353.18)"/><path class="cls-1" d="M919.45,448.63c4.11,4.76,12.67,7.46,18.81,5.82s12.32-8.4,8.62-15.05c-2.45-4.42-8.15-5.12-12.18-2.48-4.61,3-3.64,9.61,2.24,7.71,2-.64.11-.93-1-.58-2.09.67-1.2-5-.54-5.67l5.39-1.28a5.2,5.2,0,0,1,2,1.59,8.31,8.31,0,0,1,1.49,9.19c-2.39,5.74-10,6.19-15.09,4.25a16,16,0,0,1-7-4.47c-.44-.51-3.13.51-2.73,1Z" transform="translate(-303.93 -353.18)"/></g><g id="Calque_3" data-name="Calque 3"><path class="cls-1" d="M797,510.22a65.13,65.13,0,0,1,27.25-13.89,44.36,44.36,0,0,1,7.91-1.18c2.71-.15,5.24-.09,7.73-.11,5,0,9.89-.08,14.89-.27s10-.34,14.91-.64c2.42-.16,4.84-.34,7.05-.68a27.08,27.08,0,0,0,3.08-.61c.48-.12.88-.26,1.31-.41l1.49-.6c7.9-3.19,14.67-9.13,20-16.32a58.37,58.37,0,0,0,3.73-5.54c.28-.47.54-.94.77-1.36s.44-.85.66-1.34c.44-1,.87-2,1.26-3.06a54.61,54.61,0,0,0,2-6.45l.4-1.65.3-1.66c.24-1.1.37-2.21.5-3.33a45.49,45.49,0,0,0-.34-13.29,38.41,38.41,0,0,0-4.44-12.53,45.18,45.18,0,0,0-19.94-18.67A54.4,54.4,0,0,0,859,401.56l0-.23a50.72,50.72,0,0,1,30.62.11,51.72,51.72,0,0,1,14.29,7.23,48.46,48.46,0,0,1,11.44,11.68c.76,1.16,1.55,2.3,2.27,3.49l1.9,3.73a14.83,14.83,0,0,1,.83,1.92l.76,2a31.53,31.53,0,0,1,1.25,4,54.12,54.12,0,0,1,1.7,16.59,64.39,64.39,0,0,1-2.92,16.28c-.41,1.32-.87,2.64-1.39,4-.27.67-.54,1.35-.9,2.09s-.66,1.33-1,1.95a61.51,61.51,0,0,1-4.45,7.07,65,65,0,0,1-5.33,6.42,58.23,58.23,0,0,1-6.31,5.61,37,37,0,0,1-3.49,2.45L896.41,499c-.62.36-1.27.67-1.91,1l-1.91,1-2,.83-2,.79-2.08.63-2.07.61c-.77.19-1.59.36-2.34.48a38.56,38.56,0,0,1-4.37.4c-2.78.12-5.38,0-8-.06-5.14-.23-10.15-.61-15.17-1s-10.13-.78-15.16-1.36c-2.52-.3-5-.67-7.3-.83a46.3,46.3,0,0,0-7,.1c-9.59.79-19.08,4.06-28,8.7Z" transform="translate(-303.93 -353.18)"/><path class="cls-1" d="M975.77,643.94a54.38,54.38,0,0,1-26.43,12,57,57,0,0,1-30-3.55A74.33,74.33,0,0,1,894,635.26a69.36,69.36,0,0,1-9.58-12.4,86,86,0,0,1-6.56-14c-1.72-4.7-3.13-9.32-4.52-13.83a123.75,123.75,0,0,1-3.45-14.53c-.81-4.85-1.46-9.45-2.13-14s-1.43-9.12-2.24-13.75-1.48-9.45-2.09-14.07c-.33-2.31-.64-4.56-1-6.7a50.75,50.75,0,0,0-1.54-6.24A90.77,90.77,0,0,0,848,501.5l.61-.65a62.4,62.4,0,0,1,20.14,21.36,46,46,0,0,1,3.26,7.06c.9,2.4,1.63,4.76,2.3,7.07,1.37,4.61,2.56,9.12,3.85,13.61s2.49,9.29,3.49,14,1.88,9.43,2.79,13.87,1.92,8.61,3.26,13c1.32,4.52,2.61,9,4.08,13.15A64.19,64.19,0,0,0,904,626.17a71,71,0,0,0,19.89,16.41,55.33,55.33,0,0,0,25,6.8A64.55,64.55,0,0,0,975.77,643.94Z" transform="translate(-303.93 -353.18)"/></g><g id="Calque_2" data-name="Calque 2"><path class="cls-1" d="M768.62,477.76a7.49,7.49,0,0,1-5-4.79,8.91,8.91,0,0,1-.75-3.81q0-10.74-3.44-25.48c-7.44-.39-15-5.44-18.54-13.79a25.06,25.06,0,0,1-2-13,10.94,10.94,0,0,1,7.06-9.16,13.44,13.44,0,0,1,8.84-.32c6,1.49,11.05,7.24,15.34,17.44a60,60,0,0,1,4.69,21,197.7,197.7,0,0,1-.07,20.29c-.11,2.35-.19,4.44-.22,6.4,0,3.76-2.08,4.87-3,5.26A4,4,0,0,1,768.62,477.76Z" transform="translate(-303.93 -353.18)"/></g></svg>